<svg width="20" height="20" viewBox="-10 0 60 40" fill="none" xmlns="http://www.w3.org/2000/svg">
<g id="twemoji:beer-mug">
<path id="Vector" d="M34.4445 6.35333H27.7778V10.7978H32.2223C32.2223 10.7978 34.4445 10.7978 34.4445 13.02V26.3533C34.4445 28.5756 32.2223 28.5756 32.2223 28.5756H27.7778V33.02H34.4445C36.8956 33.02 38.8889 31.0267 38.8889 28.5756V10.7978C38.8889 8.34667 36.8956 6.35333 34.4445 6.35333Z" fill="#FFAC33"/>
<path id="Vector_2" d="M29.9999 6.66669H3.33325V35.5556C3.33325 36.7343 3.8015 37.8648 4.635 38.6983C5.46849 39.5318 6.59896 40 7.7777 40H25.5555C26.7342 40 27.8647 39.5318 28.6982 38.6983C29.5317 37.8648 29.9999 36.7343 29.9999 35.5556V6.66669Z" fill="#FFCC4D"/>
<path id="Vector_3" d="M9.44436 35.5555C9.14968 35.5555 8.86706 35.4385 8.65869 35.2301C8.45032 35.0217 8.33325 34.7391 8.33325 34.4444V16.6667C8.33325 16.372 8.45032 16.0894 8.65869 15.881C8.86706 15.6726 9.14968 15.5555 9.44436 15.5555C9.73905 15.5555 10.0217 15.6726 10.23 15.881C10.4384 16.0894 10.5555 16.372 10.5555 16.6667V34.4444C10.5555 34.7391 10.4384 35.0217 10.23 35.2301C10.0217 35.4385 9.73905 35.5555 9.44436 35.5555ZM16.6666 35.5555C16.3719 35.5555 16.0893 35.4385 15.8809 35.2301C15.6725 35.0217 15.5555 34.7391 15.5555 34.4444V16.6667C15.5555 16.372 15.6725 16.0894 15.8809 15.881C16.0893 15.6726 16.3719 15.5555 16.6666 15.5555C16.9613 15.5555 17.2439 15.6726 17.4523 15.881C17.6606 16.0894 17.7777 16.372 17.7777 16.6667V34.4444C17.7777 34.7391 17.6606 35.0217 17.4523 35.2301C17.2439 35.4385 16.9613 35.5555 16.6666 35.5555ZM23.8888 35.5555C23.5941 35.5555 23.3115 35.4385 23.1031 35.2301C22.8948 35.0217 22.7777 34.7391 22.7777 34.4444V16.6667C22.7777 16.372 22.8948 16.0894 23.1031 15.881C23.3115 15.6726 23.5941 15.5555 23.8888 15.5555C24.1835 15.5555 24.4661 15.6726 24.6745 15.881C24.8829 16.0894 24.9999 16.372 24.9999 16.6667V34.4444C24.9999 34.7391 24.8829 35.0217 24.6745 35.2301C24.4661 35.4385 24.1835 35.5555 23.8888 35.5555Z" fill="#F4900C"/>
<path id="Vector_4" d="M3.33325 5.55554V13.8278C3.98881 14.21 4.74214 14.4444 5.55547 14.4444C6.4383 14.4437 7.30089 14.18 8.03328 13.6871C8.76566 13.1941 9.33465 12.4942 9.6677 11.6767C10.0566 12.0122 10.5577 12.2222 11.111 12.2222C11.8633 12.2222 12.5255 11.8467 12.9277 11.2744C13.3272 11.9047 13.8793 12.4238 14.5329 12.7837C15.1865 13.1436 15.9204 13.3327 16.6666 13.3333C17.3517 13.3318 18.0271 13.1711 18.6395 12.864C19.2519 12.5568 19.7846 12.1115 20.1955 11.5633C20.3976 12.0841 20.7522 12.5317 21.213 12.8475C21.6737 13.1633 22.2191 13.3327 22.7777 13.3333C23.8321 13.3333 24.7388 12.7389 25.2088 11.8733L25.3721 11.4722C25.9379 11.788 26.5742 11.9557 27.2221 11.96C28.3121 11.96 29.2944 11.5089 29.9999 10.7867V5.55554H3.33325Z" fill="#FFAC33"/>
<path id="Vector_5" d="M26.6666 0H4.44442C3.56036 0 2.71252 0.351189 2.08739 0.976311C1.46227 1.60143 1.11108 2.44928 1.11108 3.33333V7.77778C1.11325 8.80659 1.47227 9.80279 2.12691 10.5965C2.78156 11.3901 3.69127 11.9321 4.70089 12.1299C5.71051 12.3278 6.75749 12.1692 7.66326 11.6813C8.56902 11.1934 9.27747 10.4064 9.66775 9.45444C10.0566 9.79 10.5578 10 11.1111 10C11.8633 10 12.5255 9.62444 12.9278 9.05222C13.3272 9.68245 13.8793 10.2016 14.533 10.5615C15.1866 10.9214 15.9205 11.1105 16.6666 11.1111C17.3518 11.1096 18.0272 10.9489 18.6396 10.6418C19.252 10.3346 19.7846 9.88934 20.1955 9.34111C20.3976 9.86188 20.7523 10.3095 21.213 10.6253C21.6738 10.9411 22.2191 11.1105 22.7778 11.1111C23.8322 11.1111 24.7389 10.5167 25.2089 9.65111C25.6511 9.86778 26.1411 10 26.6666 10C27.5507 10 28.3985 9.64881 29.0237 9.02369C29.6488 8.39857 30 7.55072 30 6.66667V3.33333C30 2.44928 29.6488 1.60143 29.0237 0.976311C28.3985 0.351189 27.5507 0 26.6666 0Z" fill="#EEEEEE"/>
</g>
</svg>
