<svg xmlns="http://www.w3.org/2000/svg" width="40" height="40" viewBox="-5 0 50 40" fill="none">
  <path d="M16.6666 34.4445C16.6666 36.8989 15.7877 38.8889 13.3333 38.8889H5.5555C1.11106 38.8889 1.11106 23.3333 5.5555 23.3333H13.3333C15.7877 23.3333 16.6666 25.3233 16.6666 27.7778V34.4445Z" fill="#553788"/>
  <path d="M37.7778 36.6667H36.6667V25.5556H37.7778C38.0725 25.5556 38.3551 25.4385 38.5635 25.2301C38.7719 25.0218 38.8889 24.7391 38.8889 24.4445C38.8889 24.1498 38.7719 23.8672 38.5635 23.6588C38.3551 23.4504 38.0725 23.3333 37.7778 23.3333H11.1112C6.66672 23.3333 6.66672 38.8889 11.1112 38.8889H37.7778C38.0725 38.8889 38.3551 38.7718 38.5635 38.5635C38.7719 38.3551 38.8889 38.0725 38.8889 37.7778C38.8889 37.4831 38.7719 37.2005 38.5635 36.9921C38.3551 36.7837 38.0725 36.6667 37.7778 36.6667Z" fill="#9266CC"/>
  <path d="M37.969 36.6667H12.2223C10.0001 36.6667 10.0001 25.5555 12.2223 25.5555H37.969C39.1957 25.5555 39.1957 36.6667 37.969 36.6667Z" fill="#CCD6DD"/>
  <path d="M12.7778 27.7778H38.7222C38.5722 26.4722 38.3222 25.5555 37.9689 25.5555H12.2222C10.3878 25.5555 10.0689 33.12 11.2633 35.7644C10.8278 32.4767 11.3322 27.7778 12.7778 27.7778Z" fill="#99AAB5"/>
  <path d="M13.3333 8.88889C13.3333 10.0676 12.8651 11.1981 12.0316 12.0316C11.1981 12.8651 10.0676 13.3333 8.88886 13.3333H4.44442C-2.71797e-05 13.3333 -2.71797e-05 1.11111 4.44442 1.11111H8.88886C10.0676 1.11111 11.1981 1.57937 12.0316 2.41286C12.8651 3.24636 13.3333 4.37682 13.3333 5.55556V8.88889Z" fill="#226699"/>
  <path d="M34.4443 11.1111H33.3332V3.33334H34.4443C34.739 3.33334 35.0216 3.21627 35.23 3.0079C35.4384 2.79953 35.5554 2.51691 35.5554 2.22223C35.5554 1.92754 35.4384 1.64493 35.23 1.43655C35.0216 1.22818 34.739 1.11111 34.4443 1.11111H7.77767C3.33322 1.11111 3.33322 13.3333 7.77767 13.3333H34.4443C34.739 13.3333 35.0216 13.2163 35.23 13.0079C35.4384 12.7995 35.5554 12.5169 35.5554 12.2222C35.5554 11.9275 35.4384 11.6449 35.23 11.4366C35.0216 11.2282 34.739 11.1111 34.4443 11.1111Z" fill="#55ACEE"/>
  <path d="M34.6355 11.1111H8.88883C6.66661 11.1111 6.66661 3.33334 8.88883 3.33334H34.6355C35.8622 3.33334 35.8622 11.1111 34.6355 11.1111Z" fill="#CCD6DD"/>
  <path d="M8.8889 5.55557H35.4722C35.3456 4.30557 35.0678 3.33334 34.6356 3.33334H8.8889C7.56334 3.33334 7.03445 6.0989 7.29112 8.33334C7.46445 6.82445 7.99223 5.55557 8.8889 5.55557Z" fill="#99AAB5"/>
  <path d="M22.2221 18.8889C22.2221 20.0676 21.7539 21.1981 20.9204 22.0316C20.0869 22.8651 18.9564 23.3333 17.7777 23.3333H6.66659C2.22214 23.3333 2.22214 13.3333 6.66659 13.3333H17.7777C18.9564 13.3333 20.0869 13.8016 20.9204 14.6351C21.7539 15.4686 22.2221 16.599 22.2221 17.7778V18.8889Z" fill="#F4900C"/>
  <path d="M38.8888 21.1111H37.7777V15.5556H38.8888C39.1835 15.5556 39.4661 15.4385 39.6745 15.2301C39.8829 15.0218 39.9999 14.7391 39.9999 14.4445C39.9999 14.1498 39.8829 13.8672 39.6745 13.6588C39.4661 13.4504 39.1835 13.3333 38.8888 13.3333H16.6666C12.2221 13.3333 12.2221 23.3333 16.6666 23.3333H38.8888C39.1835 23.3333 39.4661 23.2163 39.6745 23.0079C39.8829 22.7995 39.9999 22.5169 39.9999 22.2222C39.9999 21.9275 39.8829 21.6449 39.6745 21.4366C39.4661 21.2282 39.1835 21.1111 38.8888 21.1111Z" fill="#FFAC33"/>
  <path d="M39.08 21.1111H17.7778C15.5555 21.1111 15.5555 15.5555 17.7778 15.5555H39.08C40.3066 15.5555 40.3066 21.1111 39.08 21.1111Z" fill="#CCD6DD"/>
  <path d="M17.7778 17.7778H39.9822C39.91 16.5978 39.6111 15.5555 39.08 15.5555H17.7778C16.3622 15.5555 15.8522 17.8078 16.2411 19.4444C16.4611 18.5122 16.9711 17.7778 17.7778 17.7778Z" fill="#99AAB5"/>
</svg>