<svg xmlns="http://www.w3.org/2000/svg" width="40" height="40" viewBox="-5 0 50 40" fill="none">
  <g clip-path="url(#clip0_24_413)">
    <path d="M7.77766 26.6667C9.95211 26.6667 11.8143 27.9278 12.7277 29.7467L16.591 27.8144C14.9866 24.5089 11.6065 22.2222 7.68433 22.2222C6.28609 22.2225 4.90395 22.5206 3.62988 23.0967L5.48322 27.1744C6.20275 26.8426 6.98528 26.6694 7.77766 26.6667ZM32.2221 26.6667C33.8521 26.6667 35.3021 27.3811 36.3199 28.4978L39.5388 25.57C38.6122 24.5177 37.4722 23.6749 36.1945 23.0977C34.9168 22.5204 33.5308 22.222 32.1288 22.2222C28.1554 22.2222 24.7377 24.5678 23.1588 27.9444L27.2121 29.8578C28.1032 27.9778 30.0032 26.6667 32.2221 26.6667Z" fill="#EA596E"/>
    <path d="M7.77778 24.4444C6.75638 24.4444 5.74499 24.6456 4.80135 25.0365C3.85771 25.4274 3.00029 26.0003 2.27806 26.7225C1.55582 27.4447 0.982918 28.3022 0.592048 29.2458C0.201178 30.1894 0 31.2008 0 32.2222C0 33.2436 0.201178 34.255 0.592048 35.1986C0.982918 36.1423 1.55582 36.9997 2.27806 37.7219C3.00029 38.4442 3.85771 39.0171 4.80135 39.4079C5.74499 39.7988 6.75638 40 7.77778 40C9.84057 40 11.8189 39.1806 13.2775 37.7219C14.7361 36.2633 15.5556 34.285 15.5556 32.2222C15.5556 30.1594 14.7361 28.1811 13.2775 26.7225C11.8189 25.2639 9.84057 24.4444 7.77778 24.4444ZM7.77778 37.7778C6.30435 37.7778 4.89128 37.1925 3.84941 36.1506C2.80754 35.1087 2.22222 33.6956 2.22222 32.2222C2.22222 30.7488 2.80754 29.3357 3.84941 28.2938C4.89128 27.252 6.30435 26.6667 7.77778 26.6667C9.2512 26.6667 10.6643 27.252 11.7061 28.2938C12.748 29.3357 13.3333 30.7488 13.3333 32.2222C13.3333 33.6956 12.748 35.1087 11.7061 36.1506C10.6643 37.1925 9.2512 37.7778 7.77778 37.7778ZM32.2222 24.4444C30.1593 24.4446 28.1809 25.2642 26.7223 26.7231C25.2637 28.1819 24.4443 30.1604 24.4444 32.2233C24.4446 34.2863 25.2642 36.2647 26.7231 37.7233C28.1819 39.1819 30.1604 40.0013 32.2233 40.0011C33.2448 40.001 34.2562 39.7998 35.1999 39.4088C36.1436 39.0178 37.001 38.4448 37.7233 37.7225C38.4455 37.0002 39.0184 36.1426 39.4092 35.1989C39.8001 34.2552 40.0012 33.2437 40.0011 32.2222C40.001 31.2008 39.7998 30.1893 39.4088 29.2456C39.0178 28.3019 38.4448 27.4445 37.7225 26.7223C37.0002 26 36.1426 25.4272 35.1989 25.0363C34.2552 24.6455 33.2437 24.4444 32.2222 24.4444ZM32.2222 37.7778C30.7488 37.7778 29.3357 37.1925 28.2938 36.1506C27.252 35.1087 26.6667 33.6956 26.6667 32.2222C26.6667 30.7488 27.252 29.3357 28.2938 28.2938C29.3357 27.252 30.7488 26.6667 32.2222 26.6667C33.6956 26.6667 35.1087 27.252 36.1506 28.2938C37.1925 29.3357 37.7778 30.7488 37.7778 32.2222C37.7778 33.6956 37.1925 35.1087 36.1506 36.1506C35.1087 37.1925 33.6956 37.7778 32.2222 37.7778Z" fill="#292F33"/>
    <path d="M33.3155 32.1356C33.3083 32.0609 33.2934 31.9872 33.2711 31.9156C33.2516 31.8443 33.2251 31.775 33.1922 31.7089C33.1777 31.6822 33.1755 31.6511 33.1599 31.6256L25.3822 19.4033C25.3038 19.2801 25.202 19.1736 25.0825 19.0898C24.963 19.006 24.8281 18.9465 24.6856 18.9148C24.5431 18.8832 24.3958 18.8799 24.252 18.9052C24.1082 18.9304 23.9709 18.9838 23.8477 19.0622C23.6925 19.1635 23.5657 19.3027 23.4792 19.4665C23.3927 19.6304 23.3494 19.8136 23.3533 19.9989H13.3333C13.0386 19.9989 12.756 20.116 12.5476 20.3243C12.3392 20.5327 12.2222 20.8153 12.2222 21.11C12.2222 21.4047 12.3392 21.6873 12.5476 21.8957C12.756 22.1041 13.0386 22.2211 13.3333 22.2211H24.4444C24.4744 22.2211 24.4999 22.2056 24.5299 22.2033L30.1977 31.1111H19.9999C19.7053 31.1111 19.4226 31.2282 19.2143 31.4366C19.0059 31.6449 18.8888 31.9275 18.8888 32.2222C18.8888 32.5169 19.0059 32.7995 19.2143 33.0079C19.4226 33.2163 19.7053 33.3333 19.9999 33.3333H32.2233C32.3936 33.3296 32.5608 33.287 32.7122 33.2089C32.7466 33.19 32.7855 33.1822 32.8199 33.16C32.8533 33.1378 32.8733 33.1033 32.9033 33.08C33.018 32.9905 33.113 32.8781 33.1822 32.75C33.2155 32.6878 33.2433 32.6278 33.2655 32.5589C33.2881 32.4862 33.303 32.4114 33.3099 32.3356C33.3144 32.2956 33.3333 32.2622 33.3333 32.2222C33.3333 32.1922 33.3177 32.1656 33.3155 32.1356Z" fill="#DD2E44"/>
    <path d="M23.9788 17.7778L20.7577 26.7967L14.1699 19.2689C14.0743 19.1572 13.9576 19.0657 13.8264 18.9994C13.6952 18.9332 13.5522 18.8937 13.4057 18.8831C13.2591 18.8725 13.1119 18.8911 12.9726 18.9378C12.8333 18.9845 12.7046 19.0584 12.594 19.1552C12.4834 19.2519 12.3931 19.3697 12.3284 19.5016C12.2636 19.6335 12.2256 19.7769 12.2167 19.9236C12.2077 20.0703 12.2279 20.2173 12.2762 20.3561C12.3244 20.4949 12.3997 20.6227 12.4977 20.7322L19.9021 29.1933L18.9532 31.8489C18.8542 32.1265 18.8695 32.432 18.9958 32.6983C19.1221 32.9646 19.349 33.1699 19.6266 33.2689C19.9041 33.3679 20.2097 33.3526 20.476 33.2263C20.7423 33.1 20.9475 32.8731 21.0466 32.5956L26.3388 17.7778H23.9788Z" fill="#DD2E44"/>
    <path d="M7.77786 33.3333C7.58864 33.333 7.40262 33.2844 7.23744 33.1921C7.07226 33.0998 6.9334 32.9668 6.83402 32.8058C6.73464 32.6447 6.67804 32.461 6.66957 32.2719C6.6611 32.0829 6.70106 31.8948 6.78564 31.7256L10.1879 24.9411C10.2068 24.91 12.2223 21.8344 12.2223 18.8889C12.2223 15.2867 9.67453 14.3967 9.64898 14.3878C9.50879 14.3431 9.37888 14.2709 9.26679 14.1756C9.1547 14.0802 9.06266 13.9636 8.99603 13.8324C8.92939 13.7012 8.88948 13.5581 8.8786 13.4113C8.86773 13.2646 8.88612 13.1171 8.9327 12.9775C8.97928 12.8379 9.05312 12.709 9.14993 12.5982C9.24675 12.4874 9.36461 12.3969 9.49668 12.332C9.62875 12.2671 9.7724 12.2291 9.91928 12.2202C10.0662 12.2112 10.2134 12.2316 10.3523 12.28C10.519 12.3356 14.4445 13.7033 14.4445 18.8889C14.4445 22.2978 12.4045 25.6022 12.0768 26.1078L8.77231 32.7178C8.68048 32.9029 8.53868 33.0587 8.36294 33.1675C8.1872 33.2763 7.98454 33.3337 7.77786 33.3333Z" fill="#DD2E44"/>
    <path d="M16.2355 15.1811C16.1741 15.1814 16.1127 15.1762 16.0522 15.1656L9.3855 14.0544C9.0948 14.006 8.83525 13.844 8.66397 13.6042C8.49269 13.3643 8.42369 13.0663 8.47217 12.7756C8.52065 12.4849 8.68262 12.2253 8.92246 12.054C9.1623 11.8827 9.46035 11.8137 9.75106 11.8622L16.4177 12.9733C16.6936 13.0182 16.9424 13.1655 17.1145 13.3857C17.2867 13.6059 17.3695 13.8829 17.3465 14.1614C17.3235 14.44 17.1964 14.6996 16.9905 14.8886C16.7846 15.0776 16.515 15.182 16.2355 15.1811ZM29.3144 18.8889C29.2813 18.8889 29.2483 18.8867 29.2155 18.8822L22.9133 18.0956C22.7083 18.0785 22.5181 17.9819 22.3835 17.8263C22.2489 17.6707 22.1806 17.4686 22.1932 17.2632C22.2059 17.0579 22.2985 16.8657 22.4511 16.7278C22.6038 16.5899 22.8044 16.5173 23.0099 16.5256C23.0555 16.5256 27.5288 16.5056 29.6644 15.0822C29.8012 14.9916 29.9628 14.9458 30.1268 14.9509C30.2908 14.9561 30.4491 15.0121 30.58 15.1111C30.7098 15.2113 30.8054 15.3494 30.8534 15.5062C30.9013 15.6631 30.8994 15.831 30.8477 15.9867L30.06 18.35C30.0084 18.507 29.9085 18.6436 29.7746 18.7404C29.6407 18.8372 29.4796 18.8892 29.3144 18.8889Z" fill="#292F33"/>
    <path d="M22.2223 32.2222C22.2223 32.8116 21.9882 33.3768 21.5714 33.7936C21.1547 34.2103 20.5894 34.4444 20.0001 34.4444C19.4107 34.4444 18.8455 34.2103 18.4287 33.7936C18.012 33.3768 17.7778 32.8116 17.7778 32.2222C17.7778 31.6329 18.012 31.0676 18.4287 30.6509C18.8455 30.2341 19.4107 30 20.0001 30C20.5894 30 21.1547 30.2341 21.5714 30.6509C21.9882 31.0676 22.2223 31.6329 22.2223 32.2222Z" fill="#66757F"/>
  </g>
  <defs>
    <clipPath id="clip0_24_413">
      <rect width="40" height="40" fill="white"/>
    </clipPath>
  </defs>
</svg>