<svg xmlns="http://www.w3.org/2000/svg" width="40" height="40" viewBox="-10 0 60 40" fill="none">
  <g clip-path="url(#clip0_24_433)">
    <path d="M17.7522 10.4H21.9622C22.0285 10.2882 22.0688 10.163 22.0799 10.0335C22.0911 9.904 22.0729 9.77367 22.0266 9.65222L17.7533 4.42444L17.7522 10.4Z" fill="#B78B60"/>
    <path d="M14.2267 24.7522C14.17 24.388 14.0936 24.0271 13.9979 23.6711C13.309 21.2011 12.7312 20.1556 12.9779 17.5667C13.3001 15.8067 13.2812 12.2745 17.959 12.8244C19.1945 12.97 21.1178 13.8544 22.219 13.8356C22.849 13.8244 23.3078 12.55 23.349 12.1256C23.4056 11.5411 22.3878 10.5478 21.9623 10.3989C20.9739 10.079 19.9808 9.77375 18.9834 9.48334C17.829 9.14889 17.889 7.58889 17.8156 7.03334C17.7995 6.90389 17.8218 6.77255 17.88 6.65575C17.9381 6.53895 18.0293 6.44188 18.1423 6.37667C18.3756 6.23889 18.559 6.36778 18.7856 6.51556L19.769 7.23556C20.3212 7.70889 18.7978 8.61334 19.2101 8.76445C19.2101 8.76445 21.1601 9.49667 21.9956 9.64889C22.4534 9.73223 24.0334 7.95001 24.1256 6.90445C24.1978 6.08223 20.3501 2.36778 17.6067 0.925562C16.6423 0.418895 16.0767 0.124451 15.4412 0.154451C14.6823 0.190006 14.4434 0.490006 13.499 1.2989C9.22452 4.95556 5.07563 12.8633 4.46674 14.6133C1.97119 21.7922 1.58119 25.5744 1.4923 27.7111C1.4372 28.3608 1.40903 29.0125 1.40785 29.6644C1.48007 29.6644 0.296741 35.22 1.40785 36.3311C2.51896 37.4422 7.32563 37.4422 7.32563 37.4422C18.4367 41.8744 39.0701 40.7178 39.0701 29.4056C39.0701 15.8811 18.1667 17.6756 14.2267 24.7522Z" fill="#D4AB88"/>
    <path d="M22.9221 35.6422C19.411 35.2733 16.6688 33.5522 16.5144 33.4533C16.2658 33.2949 16.0903 33.0443 16.0266 32.7565C15.9628 32.4688 16.016 32.1674 16.1744 31.9189C16.3328 31.6703 16.5834 31.4948 16.8712 31.4311C17.1589 31.3673 17.4602 31.4205 17.7088 31.5789C17.7532 31.6067 22.1566 34.3478 26.4266 33.2089C28.7877 32.58 30.7232 30.8589 32.1788 28.0967C32.3161 27.8359 32.5514 27.6403 32.8329 27.553C33.1145 27.4657 33.4191 27.4938 33.6799 27.6311C33.9407 27.7684 34.1363 28.0037 34.2236 28.2852C34.3109 28.5668 34.2828 28.8714 34.1455 29.1322C32.3844 32.4722 29.9744 34.5689 26.9821 35.3611C25.5855 35.73 24.2021 35.7767 22.9221 35.6422Z" fill="#B78B60"/>
  </g>
  <defs>
    <clipPath id="clip0_24_433">
      <rect width="40" height="40" fill="white"/>
    </clipPath>
  </defs>
</svg>